<?xml version="1.0" standalone="no"?>
<!DOCTYPE svg PUBLIC "-//W3C//DTD SVG 20010904//EN"
 "http://www.w3.org/TR/2001/REC-SVG-20010904/DTD/svg10.dtd">
<svg version="1.0" xmlns="http://www.w3.org/2000/svg"
 width="300.000000pt" height="300.000000pt" viewBox="0 0 300.000000 300.000000"
 preserveAspectRatio="xMidYMid meet">
<metadata>
Created by potrace 1.11, written by Peter Selinger 2001-2013
</metadata>
<g transform="translate(0.000000,300.000000) scale(0.100000,-0.100000)"
fill="#000000" stroke="none">
<path d="M0 1500 l0 -1500 1500 0 1500 0 0 1500 0 1500 -1500 0 -1500 0 0
-1500z m1102 585 c96 -16 214 -51 223 -65 4 -7 -84 -242 -100 -268 -1 -1 -22
6 -46 17 -24 11 -82 27 -128 36 -200 41 -349 -17 -412 -161 -31 -69 -45 -190
-33 -287 28 -220 144 -315 358 -292 l66 7 0 104 0 104 -115 0 -115 0 0 135 0
135 280 0 280 0 -2 -346 -3 -347 -40 -14 c-115 -40 -239 -57 -420 -57 -198 -1
-242 7 -359 66 -76 38 -172 134 -213 213 -58 111 -77 201 -77 370 -1 237 41
354 173 485 98 98 212 153 356 173 72 10 249 6 327 -8z m878 -235 l0 -240 200
0 200 0 0 240 0 240 175 0 175 0 0 -645 0 -645 -175 0 -175 0 0 265 0 265
-200 0 -200 0 0 -265 0 -265 -175 0 -175 0 0 645 0 645 175 0 175 0 0 -240z"/>
</g>
</svg>
