<svg version="1.0" xmlns="http://www.w3.org/2000/svg" width="400" height="400" viewBox="0 0 300 300"><path d="M0 150v150h300V0H0v150zm110.2-58.5c9.6 1.6 21.4 5.1 22.3 6.5.4.7-8.4 24.2-10 26.8-.1.1-2.2-.6-4.6-1.7-2.4-1.1-8.2-2.7-12.8-3.6-20-4.1-34.9 1.7-41.2 16.1-3.1 6.9-4.5 19-3.3 28.7 2.8 22 14.4 31.5 35.8 29.2l6.6-.7V172H80v-27h56l-.2 34.6-.3 34.7-4 1.4c-11.5 4-23.9 5.7-42 5.7-19.8.1-24.2-.7-35.9-6.6-7.6-3.8-17.2-13.4-21.3-21.3-5.8-11.1-7.7-20.1-7.7-37-.1-23.7 4.1-35.4 17.3-48.5 9.8-9.8 21.2-15.3 35.6-17.3 7.2-1 24.9-.6 32.7.8zM198 115v24h40V91h35v129h-35v-53h-40v53h-35V91h35v24z"/></svg>